<svg xmlns="http://www.w3.org/2000/svg" width="796" height="622" viewBox="0 0 796 622">
  <path d="M28 365 L27 366 L27 367 L25 369 L25 370 L24 371 L24 372 L23 373 L23 374 L22 375 L22 376 L21 377 L21 378 L20 379 L20 381 L19 382 L19 384 L18 385 L18 388 L17 389 L17 392 L16 393 L16 401 L15 402 L15 403 L16 404 L16 405 L15 406 L16 407 L16 417 L17 418 L17 421 L18 422 L18 425 L19 426 L19 428 L20 429 L20 430 L21 431 L21 433 L22 434 L22 435 L23 436 L23 437 L24 438 L24 439 L26 441 L26 442 L28 444 L28 445 L32 449 L32 450 L43 461 L44 461 L47 464 L48 464 L50 466 L51 466 L53 468 L54 468 L55 469 L56 469 L57 470 L58 470 L59 471 L60 471 L61 472 L62 472 L63 473 L64 473 L65 474 L67 474 L68 475 L70 475 L71 476 L73 476 L74 477 L77 477 L78 478 L82 478 L83 479 L103 479 L104 478 L107 478 L108 477 L110 477 L111 476 L112 476 L113 475 L115 475 L117 473 L118 473 L119 472 L120 472 L122 470 L123 470 L127 466 L128 466 L132 462 L132 461 L135 458 L135 457 L137 455 L137 454 L138 453 L138 452 L139 451 L139 448 L137 446 L132 446 L131 447 L130 447 L129 448 L128 448 L127 449 L126 449 L125 450 L124 450 L123 451 L122 451 L121 452 L119 452 L118 453 L117 453 L116 454 L114 454 L113 455 L111 455 L110 456 L107 456 L106 457 L100 457 L99 458 L85 458 L84 457 L80 457 L79 456 L76 456 L75 455 L73 455 L72 454 L70 454 L69 453 L68 453 L67 452 L65 452 L64 451 L63 451 L62 450 L61 450 L60 449 L59 449 L57 447 L56 447 L54 445 L53 445 L51 443 L50 443 L39 432 L39 431 L36 428 L36 427 L34 425 L34 424 L33 423 L33 422 L32 421 L32 420 L31 419 L31 418 L30 417 L30 415 L29 414 L29 412 L28 411 L28 409 L27 408 L27 405 L26 404 L26 402 L25 401 L25 394 L24 393 L24 382 L25 381 L25 374 L26 373 L26 370 L27 369 L27 366 Z M449 339 L448 340 L448 341 L447 342 L447 358 L448 359 L447 360 L447 383 L448 384 L447 385 L447 387 L448 388 L447 389 L447 391 L448 392 L447 393 L447 399 L448 400 L448 401 L447 402 L447 403 L448 404 L447 405 L447 420 L450 423 L451 423 L452 424 L458 424 L459 425 L460 425 L461 426 L460 427 L459 427 L458 428 L451 428 L450 429 L449 429 L447 431 L447 438 L448 439 L447 440 L447 495 L448 496 L447 497 L447 511 L448 512 L448 513 L449 514 L452 514 L453 515 L455 515 L456 514 L457 514 L458 515 L459 515 L460 514 L461 514 L462 515 L463 514 L482 514 L483 515 L484 514 L487 514 L488 515 L489 514 L491 514 L492 515 L493 514 L494 514 L495 515 L496 515 L498 513 L498 340 L497 339 Z M585 330 L584 331 L575 331 L574 332 L568 332 L567 333 L565 333 L564 334 L561 334 L560 335 L559 335 L558 336 L556 336 L555 337 L554 337 L553 338 L552 338 L551 339 L550 339 L549 340 L548 340 L546 342 L545 342 L541 346 L540 346 L535 351 L535 352 L531 356 L531 357 L530 358 L530 359 L529 360 L529 361 L528 362 L528 363 L527 364 L527 365 L526 366 L526 368 L525 369 L525 371 L524 372 L524 376 L523 377 L523 385 L522 386 L523 387 L523 388 L522 389 L522 390 L523 391 L523 398 L524 399 L524 402 L525 403 L525 406 L526 407 L526 408 L527 409 L527 410 L528 411 L528 412 L529 413 L529 414 L530 415 L530 416 L532 418 L532 419 L539 426 L540 426 L542 428 L543 428 L544 429 L545 429 L546 430 L547 430 L549 432 L550 432 L551 433 L552 433 L553 434 L554 434 L555 435 L556 435 L557 436 L559 436 L560 437 L561 437 L562 438 L564 438 L565 439 L567 439 L568 440 L570 440 L571 441 L573 441 L574 442 L577 442 L578 443 L580 443 L581 444 L583 444 L584 445 L586 445 L587 446 L589 446 L590 447 L592 447 L593 448 L594 448 L595 449 L597 449 L598 450 L599 450 L600 451 L601 451 L602 452 L603 452 L604 453 L605 453 L606 454 L607 454 L610 457 L610 458 L612 460 L612 464 L613 465 L612 466 L613 467 L613 468 L612 469 L612 471 L611 472 L611 473 L607 477 L606 477 L604 479 L602 479 L601 480 L599 480 L598 481 L592 481 L591 482 L590 481 L589 481 L588 482 L587 482 L586 481 L585 481 L584 482 L583 481 L581 481 L580 482 L579 481 L576 481 L575 480 L571 480 L570 479 L566 479 L565 478 L562 478 L561 477 L559 477 L558 476 L556 476 L555 475 L553 475 L552 474 L551 474 L550 473 L549 473 L548 472 L547 472 L546 471 L545 471 L544 470 L543 470 L542 469 L541 469 L540 468 L539 468 L538 467 L537 467 L535 465 L534 465 L533 464 L526 464 L525 465 L525 467 L523 469 L523 472 L522 473 L522 475 L521 476 L521 477 L520 478 L520 481 L519 482 L519 487 L518 488 L518 491 L517 492 L517 493 L516 494 L516 497 L519 500 L520 500 L521 501 L522 501 L523 502 L524 502 L525 503 L526 503 L527 504 L528 504 L529 505 L530 505 L531 506 L532 506 L533 507 L534 507 L535 508 L537 508 L538 509 L540 509 L541 510 L543 510 L544 511 L546 511 L547 512 L549 512 L550 513 L552 513 L553 514 L556 514 L557 515 L561 515 L562 516 L566 516 L567 517 L572 517 L573 518 L602 518 L603 517 L607 517 L608 516 L611 516 L612 515 L614 515 L615 514 L618 514 L619 513 L620 513 L621 512 L622 512 L623 511 L625 511 L627 509 L628 509 L629 508 L630 508 L631 507 L632 507 L634 505 L635 505 L639 501 L640 501 L640 500 L641 499 L642 499 L642 498 L643 497 L644 497 L644 496 L648 492 L648 491 L650 489 L650 488 L651 487 L651 486 L652 485 L652 484 L653 483 L653 482 L654 481 L654 480 L655 479 L655 477 L656 476 L656 473 L657 472 L657 467 L658 466 L658 454 L657 453 L657 449 L656 448 L656 445 L655 444 L655 442 L654 441 L654 440 L653 439 L653 437 L652 436 L652 435 L650 433 L650 432 L647 429 L647 428 L643 424 L642 424 L641 423 L641 422 L640 422 L638 420 L637 420 L635 418 L634 418 L633 417 L632 417 L631 416 L630 416 L629 415 L628 415 L627 414 L625 414 L624 413 L622 413 L621 412 L618 412 L617 411 L615 411 L614 410 L611 410 L610 409 L608 409 L607 408 L604 408 L603 407 L601 407 L600 406 L597 406 L596 405 L595 405 L594 404 L592 404 L591 403 L589 403 L588 402 L586 402 L585 401 L584 401 L583 400 L581 400 L579 398 L578 398 L577 397 L576 397 L571 392 L571 391 L570 390 L570 388 L569 387 L569 380 L570 379 L570 377 L571 376 L571 375 L573 373 L574 373 L577 370 L578 370 L579 369 L580 369 L581 368 L584 368 L585 367 L591 367 L592 366 L599 366 L600 367 L605 367 L606 368 L609 368 L610 369 L612 369 L613 370 L615 370 L616 371 L618 371 L619 372 L621 372 L622 373 L624 373 L625 374 L627 374 L628 375 L629 375 L630 376 L632 376 L633 377 L636 377 L637 378 L642 378 L643 377 L644 377 L644 376 L645 375 L645 345 L643 343 L642 343 L641 342 L640 342 L639 341 L638 341 L637 340 L636 340 L635 339 L634 339 L633 338 L631 338 L630 337 L628 337 L627 336 L625 336 L624 335 L622 335 L621 334 L618 334 L617 333 L613 333 L612 332 L608 332 L607 331 L596 331 L595 330 L591 330 L590 331 L589 330 Z M526 466 L527 465 L528 466 L527 467 Z M318 330 L317 331 L312 331 L311 332 L308 332 L307 333 L305 333 L304 334 L302 334 L301 335 L299 335 L298 336 L297 336 L296 337 L294 337 L293 338 L292 338 L291 339 L290 339 L289 340 L288 340 L286 342 L285 342 L284 343 L283 343 L281 345 L280 345 L277 348 L276 348 L270 354 L269 354 L265 358 L265 359 L264 360 L263 360 L263 361 L259 365 L259 366 L257 368 L257 369 L254 372 L254 373 L253 374 L253 375 L252 376 L252 377 L251 378 L251 379 L250 380 L250 381 L249 382 L249 383 L248 384 L248 385 L247 386 L247 388 L246 389 L246 391 L245 392 L245 395 L244 396 L244 399 L243 400 L243 404 L242 405 L242 408 L241 409 L241 419 L240 420 L240 431 L241 432 L241 433 L240 434 L241 435 L241 442 L242 443 L242 447 L243 448 L243 451 L244 452 L244 454 L245 455 L245 457 L246 458 L246 460 L247 461 L247 462 L248 463 L248 464 L249 465 L249 466 L250 467 L250 468 L251 469 L251 470 L252 471 L252 472 L254 474 L254 475 L256 477 L256 478 L261 483 L261 484 L273 496 L274 496 L278 500 L279 500 L281 502 L282 502 L284 504 L285 504 L286 505 L287 505 L288 506 L289 506 L291 508 L292 508 L293 509 L295 509 L296 510 L297 510 L298 511 L300 511 L301 512 L302 512 L303 513 L306 513 L307 514 L310 514 L311 515 L316 515 L317 516 L326 516 L327 517 L328 516 L329 516 L330 517 L331 517 L332 516 L333 517 L334 517 L335 516 L336 517 L337 517 L338 516 L344 516 L345 515 L350 515 L351 514 L354 514 L355 513 L358 513 L359 512 L361 512 L362 511 L364 511 L365 510 L366 510 L367 509 L369 509 L370 508 L371 508 L372 507 L373 507 L374 506 L375 506 L376 505 L377 505 L378 504 L379 504 L381 502 L382 502 L386 498 L387 498 L391 494 L392 494 L392 493 L393 492 L394 492 L396 490 L396 489 L397 488 L398 488 L400 486 L400 485 L404 481 L404 480 L406 478 L406 477 L408 475 L408 474 L410 472 L410 471 L411 470 L411 469 L412 468 L412 467 L413 466 L413 465 L414 464 L414 463 L415 462 L415 460 L416 459 L416 458 L417 457 L417 455 L418 454 L418 451 L419 450 L419 447 L420 446 L420 443 L421 442 L421 436 L422 435 L422 424 L423 423 L422 422 L422 408 L421 407 L421 402 L420 401 L420 398 L419 397 L419 395 L418 394 L418 392 L417 391 L417 389 L416 388 L416 386 L415 385 L415 384 L414 383 L414 381 L413 380 L413 379 L412 378 L412 377 L411 376 L411 375 L409 373 L409 372 L408 371 L408 370 L406 368 L406 367 L404 365 L404 364 L401 361 L401 360 L391 350 L390 350 L386 346 L385 346 L383 344 L382 344 L381 343 L380 343 L379 342 L378 342 L377 341 L376 341 L375 340 L374 340 L373 339 L372 339 L371 338 L370 338 L369 337 L367 337 L366 336 L364 336 L363 335 L361 335 L360 334 L357 334 L356 333 L354 333 L353 332 L348 332 L347 331 L341 331 L340 330 Z M291 441 L292 440 L293 440 L294 441 L295 441 L296 440 L297 441 L300 441 L301 440 L302 440 L303 441 L304 440 L306 440 L307 441 L308 440 L310 440 L311 441 L312 440 L371 440 L373 442 L372 443 L372 446 L371 447 L371 449 L370 450 L370 452 L369 453 L369 454 L367 456 L367 457 L366 458 L366 459 L363 462 L363 463 L358 468 L357 468 L354 471 L353 471 L352 472 L351 472 L349 474 L347 474 L346 475 L344 475 L343 476 L341 476 L340 477 L324 477 L323 476 L320 476 L319 475 L317 475 L316 474 L315 474 L314 473 L313 473 L311 471 L310 471 L307 468 L306 468 L298 460 L298 459 L295 456 L295 455 L294 454 L294 453 L293 452 L293 451 L292 450 L292 449 L291 448 L291 447 L290 446 L290 444 L289 443 L289 442 L290 441 Z M321 369 L322 368 L339 368 L340 369 L344 369 L345 370 L347 370 L348 371 L350 371 L351 372 L352 372 L353 373 L354 373 L356 375 L357 375 L367 385 L367 386 L369 388 L369 389 L370 390 L370 391 L371 392 L371 393 L372 394 L372 396 L373 397 L373 400 L374 401 L374 407 L373 408 L371 408 L370 409 L369 409 L368 408 L367 409 L366 408 L365 409 L363 409 L362 408 L361 409 L345 409 L344 408 L343 409 L290 409 L289 408 L289 402 L290 401 L290 399 L291 398 L291 397 L292 396 L292 394 L293 393 L293 392 L294 391 L294 390 L296 388 L296 387 L298 385 L298 384 L305 377 L306 377 L309 374 L310 374 L311 373 L312 373 L314 371 L316 371 L317 370 L318 370 L319 369 Z M115 317 L114 318 L105 318 L104 319 L100 319 L99 320 L97 320 L96 321 L94 321 L93 322 L91 322 L90 323 L89 323 L88 324 L87 324 L86 325 L85 325 L84 326 L83 326 L81 328 L80 328 L77 331 L76 331 L67 340 L67 341 L64 344 L64 345 L61 348 L61 349 L60 350 L60 351 L59 352 L59 353 L58 354 L58 355 L57 356 L57 357 L56 358 L56 359 L55 360 L55 361 L54 362 L54 364 L53 365 L53 368 L52 369 L52 373 L51 374 L51 381 L50 382 L51 383 L50 384 L50 392 L51 393 L51 400 L52 401 L52 404 L53 405 L53 408 L54 409 L54 411 L55 412 L55 413 L56 414 L56 415 L57 416 L57 417 L59 419 L59 420 L62 423 L62 424 L70 432 L71 432 L74 435 L75 435 L76 436 L77 436 L79 438 L80 438 L81 439 L83 439 L84 440 L86 440 L87 441 L90 441 L91 442 L95 442 L96 443 L110 443 L111 442 L114 442 L115 441 L117 441 L118 440 L119 440 L120 439 L121 439 L129 431 L129 430 L130 429 L130 428 L131 427 L131 426 L132 425 L132 424 L133 423 L133 421 L134 420 L134 418 L135 417 L135 415 L136 414 L136 412 L137 411 L137 410 L140 407 L141 407 L142 406 L145 406 L146 407 L147 407 L151 411 L151 412 L153 414 L153 416 L154 417 L154 419 L155 420 L155 440 L154 441 L154 444 L153 445 L153 447 L152 448 L152 450 L151 451 L151 452 L150 453 L150 454 L149 455 L149 456 L148 457 L148 458 L147 459 L147 460 L145 462 L145 463 L140 468 L140 469 L138 471 L137 471 L134 474 L133 474 L130 477 L129 477 L128 478 L127 478 L126 479 L125 479 L124 480 L123 480 L122 481 L121 481 L120 482 L119 482 L118 483 L116 483 L115 484 L112 484 L111 485 L109 485 L108 486 L106 486 L105 487 L97 487 L96 488 L83 488 L82 487 L76 487 L75 486 L70 486 L69 485 L66 485 L65 484 L62 484 L61 483 L59 483 L58 482 L57 482 L56 481 L54 481 L53 480 L51 480 L50 479 L48 479 L47 478 L45 478 L44 477 L43 477 L42 476 L40 476 L39 475 L36 475 L35 474 L28 474 L27 475 L24 475 L22 477 L21 477 L18 480 L18 481 L16 483 L16 484 L15 485 L15 486 L14 487 L14 489 L13 490 L13 492 L12 493 L12 496 L11 497 L11 504 L10 505 L10 506 L11 507 L11 508 L10 509 L10 510 L11 511 L11 519 L12 520 L12 522 L13 523 L13 525 L14 526 L14 528 L15 529 L15 530 L16 531 L16 532 L17 533 L17 534 L18 535 L18 536 L21 539 L21 540 L29 548 L30 548 L31 549 L32 549 L34 551 L35 551 L36 552 L37 552 L38 553 L40 553 L41 554 L45 554 L46 555 L53 555 L54 556 L63 556 L64 555 L70 555 L71 554 L74 554 L75 553 L77 553 L78 552 L80 552 L81 551 L82 551 L83 550 L84 550 L85 549 L86 549 L87 548 L88 548 L90 546 L91 546 L95 542 L96 542 L102 536 L103 536 L113 526 L114 526 L117 523 L118 523 L120 521 L121 521 L123 519 L124 519 L125 518 L126 518 L127 517 L128 517 L129 516 L131 516 L132 515 L133 515 L134 514 L136 514 L137 513 L139 513 L140 512 L142 512 L143 511 L146 511 L147 510 L148 510 L149 509 L151 509 L152 508 L154 508 L155 507 L157 507 L158 506 L161 506 L162 505 L165 505 L166 504 L172 504 L173 503 L182 503 L183 504 L185 504 L186 505 L187 505 L188 506 L189 506 L191 508 L192 508 L194 510 L194 511 L196 513 L196 515 L197 516 L197 518 L198 519 L198 532 L197 533 L197 536 L196 537 L196 539 L195 540 L195 542 L194 543 L194 544 L193 545 L193 546 L192 547 L192 548 L191 549 L191 550 L189 552 L189 553 L187 555 L187 556 L180 563 L179 563 L177 565 L176 565 L174 567 L172 567 L171 568 L170 568 L169 569 L168 569 L167 570 L164 570 L163 571 L152 571 L151 570 L149 570 L148 569 L147 569 L139 561 L138 561 L137 560 L136 560 L135 559 L133 559 L132 558 L127 558 L126 559 L123 559 L122 560 L121 560 L120 561 L119 561 L117 563 L116 563 L115 564 L114 564 L112 566 L111 566 L110 567 L109 567 L108 568 L107 568 L105 570 L104 570 L103 571 L102 571 L101 572 L100 572 L99 573 L98 573 L97 574 L95 574 L94 575 L92 575 L91 576 L89 576 L88 577 L87 577 L86 578 L85 578 L84 579 L83 579 L82 578 L85 575 L86 575 L88 573 L89 573 L90 572 L91 572 L94 569 L95 569 L98 566 L99 566 L111 554 L112 554 L112 553 L113 552 L114 552 L114 551 L115 550 L116 550 L116 549 L117 548 L118 548 L118 547 L119 546 L120 546 L126 540 L127 540 L129 538 L130 538 L132 536 L133 536 L134 535 L135 535 L136 534 L138 534 L139 533 L140 533 L141 532 L143 532 L144 531 L146 531 L147 530 L150 530 L151 529 L156 529 L157 528 L168 528 L169 529 L170 529 L171 530 L172 530 L175 533 L175 534 L176 535 L176 537 L177 538 L177 541 L176 542 L176 546 L175 547 L175 548 L174 549 L174 550 L178 546 L178 545 L181 542 L181 541 L183 539 L183 538 L184 537 L184 535 L185 534 L185 521 L184 520 L184 519 L180 515 L179 515 L178 514 L164 514 L163 515 L159 515 L158 516 L155 516 L154 517 L151 517 L150 518 L148 518 L147 519 L146 519 L145 520 L143 520 L142 521 L141 521 L140 522 L138 522 L137 523 L136 523 L135 524 L134 524 L133 525 L132 525 L131 526 L130 526 L128 528 L127 528 L126 529 L125 529 L122 532 L121 532 L113 540 L112 540 L102 550 L101 550 L97 554 L96 554 L93 557 L92 557 L90 559 L89 559 L87 561 L86 561 L85 562 L84 562 L83 563 L82 563 L81 564 L80 564 L79 565 L78 565 L77 566 L76 566 L75 567 L74 567 L72 569 L70 569 L69 570 L68 570 L66 572 L65 572 L64 573 L63 573 L61 575 L60 575 L57 578 L57 579 L55 581 L55 582 L54 583 L54 585 L53 586 L53 589 L52 590 L53 591 L52 592 L52 601 L53 602 L53 606 L54 607 L54 608 L57 611 L70 611 L71 610 L72 610 L73 609 L75 609 L76 608 L77 608 L78 607 L79 607 L80 606 L81 606 L82 605 L83 605 L85 603 L86 603 L89 600 L90 600 L93 597 L94 597 L100 591 L101 591 L103 589 L104 589 L106 587 L107 587 L108 586 L109 586 L110 585 L111 585 L112 584 L113 584 L114 583 L115 583 L116 582 L125 582 L126 583 L128 583 L129 584 L130 584 L131 585 L132 585 L133 586 L135 586 L136 587 L137 587 L138 588 L139 588 L140 589 L142 589 L143 590 L145 590 L146 591 L148 591 L149 592 L156 592 L157 593 L158 592 L160 592 L161 593 L163 593 L164 592 L169 592 L170 591 L172 591 L173 590 L176 590 L177 589 L178 589 L179 588 L180 588 L181 587 L182 587 L183 586 L184 586 L185 585 L186 585 L187 584 L188 584 L189 583 L190 583 L191 582 L192 582 L196 578 L197 578 L210 565 L210 564 L212 562 L212 561 L215 558 L215 557 L216 556 L216 555 L217 554 L217 553 L218 552 L218 551 L219 550 L219 549 L220 548 L220 547 L221 546 L221 544 L222 543 L222 541 L223 540 L223 537 L224 536 L224 531 L225 530 L225 513 L224 512 L224 507 L223 506 L223 503 L222 502 L222 501 L221 500 L221 498 L220 497 L220 496 L219 495 L219 494 L217 492 L217 491 L215 489 L215 488 L213 486 L213 485 L202 474 L201 474 L197 470 L196 470 L194 468 L193 468 L192 467 L191 467 L190 466 L189 466 L188 465 L187 465 L186 464 L184 464 L183 463 L179 463 L177 465 L176 465 L172 469 L171 469 L166 474 L165 474 L161 478 L160 478 L157 481 L156 481 L154 483 L153 483 L151 485 L150 485 L149 486 L148 486 L146 488 L145 488 L144 489 L143 489 L142 490 L141 490 L140 491 L139 491 L138 492 L137 492 L136 493 L135 493 L134 494 L133 494 L132 495 L131 495 L130 496 L129 496 L128 497 L126 497 L125 498 L124 498 L123 499 L122 499 L121 500 L120 500 L119 501 L118 501 L117 502 L116 502 L115 503 L113 503 L112 504 L111 504 L109 506 L107 506 L106 507 L105 507 L103 509 L102 509 L101 510 L100 510 L98 512 L97 512 L95 514 L94 514 L93 515 L92 515 L89 518 L88 518 L86 520 L85 520 L84 521 L83 521 L82 522 L81 522 L80 523 L79 523 L78 524 L77 524 L76 525 L75 525 L74 526 L71 526 L70 527 L65 527 L64 528 L61 528 L60 527 L53 527 L52 526 L51 526 L50 525 L49 525 L48 524 L47 524 L41 518 L41 517 L40 516 L40 515 L39 514 L39 513 L38 512 L38 503 L39 502 L39 500 L41 498 L41 497 L43 495 L44 495 L45 494 L48 494 L49 493 L50 493 L51 494 L55 494 L56 495 L58 495 L59 496 L62 496 L63 497 L66 497 L67 498 L77 498 L78 499 L81 499 L82 498 L83 499 L84 498 L91 498 L92 497 L96 497 L97 496 L101 496 L102 495 L105 495 L106 494 L108 494 L109 493 L111 493 L112 492 L114 492 L115 491 L117 491 L118 490 L119 490 L120 489 L121 489 L122 488 L124 488 L125 487 L126 487 L127 486 L128 486 L129 485 L130 485 L132 483 L133 483 L136 480 L137 480 L150 467 L150 466 L153 463 L153 462 L155 460 L155 459 L157 457 L157 456 L158 455 L158 454 L159 453 L159 452 L160 451 L160 449 L161 448 L161 447 L162 446 L162 444 L163 443 L163 440 L164 439 L164 436 L165 435 L165 416 L164 415 L164 412 L163 411 L163 409 L162 408 L162 407 L161 406 L161 405 L160 404 L160 403 L159 402 L159 401 L157 399 L157 398 L153 394 L152 394 L149 391 L148 391 L147 390 L145 390 L144 389 L141 389 L140 388 L134 388 L133 389 L131 389 L130 390 L129 390 L128 391 L128 392 L127 393 L127 394 L126 395 L126 396 L125 397 L125 399 L124 400 L124 403 L123 404 L123 407 L122 408 L122 413 L121 414 L121 416 L120 417 L120 419 L119 420 L119 422 L117 424 L117 425 L112 430 L111 430 L109 432 L108 432 L107 433 L97 433 L96 432 L94 432 L93 431 L91 431 L90 430 L89 430 L88 429 L87 429 L85 427 L84 427 L81 424 L80 424 L77 421 L77 420 L73 416 L73 415 L71 413 L71 412 L70 411 L70 409 L69 408 L69 406 L68 405 L68 402 L67 401 L67 394 L66 393 L66 391 L67 390 L67 389 L66 388 L66 387 L67 386 L66 385 L66 384 L67 383 L67 379 L68 378 L68 375 L69 374 L69 372 L70 371 L70 369 L71 368 L71 366 L72 365 L72 364 L73 363 L73 362 L74 361 L74 360 L75 359 L75 358 L77 356 L77 355 L80 352 L80 351 L91 340 L92 340 L95 337 L96 337 L97 336 L98 336 L100 334 L101 334 L102 333 L103 333 L104 332 L105 332 L106 331 L107 331 L108 330 L109 330 L110 329 L111 329 L112 328 L113 328 L114 327 L116 327 L117 326 L119 326 L120 325 L122 325 L123 324 L125 324 L126 323 L129 323 L130 322 L134 322 L135 321 L136 321 L135 321 L134 320 L132 320 L131 319 L129 319 L128 318 L122 318 L121 317 L120 317 L119 318 L118 318 L117 317 Z M91 568 L92 567 L93 568 L92 569 Z M87 563 L88 562 L89 563 L88 564 Z M131 533 L132 532 L133 533 L132 534 Z M127 531 L128 530 L129 531 L128 532 Z M179 529 L180 528 L181 529 L180 530 Z M174 529 L175 528 L176 529 L175 530 Z M64 529 L65 528 L66 529 L65 530 Z M143 523 L144 522 L145 523 L144 524 Z M179 519 L180 518 L181 519 L180 520 Z M160 518 L161 517 L162 518 L161 519 Z M154 498 L155 497 L156 498 L155 499 Z M83 495 L84 494 L85 495 L84 496 Z M123 432 L124 431 L125 432 L124 433 Z M126 429 L127 428 L128 429 L127 430 Z M147 403 L148 402 L149 403 L148 404 Z M142 402 L143 401 L144 402 L143 403 Z M138 402 L139 401 L140 402 L139 403 Z M154 400 L155 399 L156 400 L155 401 Z M135 398 L136 397 L137 398 L137 399 L136 400 L135 399 Z M143 391 L144 390 L145 391 L144 392 Z M79 331 L80 330 L81 331 L80 332 Z M210 314 L209 315 L205 315 L204 316 L200 316 L199 317 L197 317 L196 318 L194 318 L193 319 L192 319 L191 320 L190 320 L189 321 L188 321 L187 322 L186 322 L184 324 L183 324 L180 327 L179 327 L170 336 L169 336 L167 338 L166 338 L165 339 L154 339 L153 338 L149 338 L148 337 L137 337 L136 338 L132 338 L131 339 L127 339 L126 340 L124 340 L123 341 L121 341 L120 342 L119 342 L118 343 L116 343 L115 344 L114 344 L113 345 L112 345 L110 347 L109 347 L107 349 L106 349 L96 359 L96 360 L94 362 L94 363 L93 364 L93 365 L92 366 L92 367 L91 368 L91 370 L90 371 L90 376 L89 377 L89 390 L90 391 L92 391 L96 387 L96 386 L98 384 L98 383 L107 374 L108 374 L109 373 L110 373 L111 372 L112 372 L113 371 L114 371 L115 370 L117 370 L118 369 L120 369 L121 368 L139 368 L140 369 L143 369 L144 370 L146 370 L147 371 L148 371 L149 372 L150 372 L151 373 L152 373 L153 374 L154 374 L155 375 L156 375 L158 377 L159 377 L161 379 L162 379 L172 389 L172 390 L175 393 L175 394 L176 395 L176 396 L177 397 L177 398 L178 399 L178 400 L179 401 L179 402 L180 403 L180 405 L181 406 L181 407 L182 408 L182 411 L183 412 L183 415 L184 416 L184 422 L185 423 L185 438 L184 439 L184 442 L183 443 L183 444 L183 443 L185 441 L185 440 L187 438 L187 437 L189 435 L189 434 L190 433 L190 432 L191 431 L191 430 L192 429 L192 428 L193 427 L193 424 L194 423 L194 421 L196 419 L197 420 L197 425 L198 426 L198 432 L199 433 L199 437 L200 438 L200 442 L201 443 L201 445 L202 445 L206 441 L206 440 L207 439 L207 437 L208 436 L208 432 L209 431 L209 428 L210 427 L210 406 L209 405 L209 401 L208 400 L208 396 L207 395 L207 393 L206 392 L206 389 L205 388 L205 387 L204 386 L204 384 L203 383 L203 381 L202 380 L202 379 L201 378 L201 377 L200 376 L200 375 L199 374 L199 373 L197 371 L197 370 L195 368 L195 367 L192 364 L192 363 L186 357 L185 357 L184 356 L181 356 L180 355 L180 354 L182 352 L183 352 L184 351 L185 351 L186 350 L187 350 L188 349 L189 349 L190 348 L191 348 L192 347 L194 347 L195 346 L198 346 L199 345 L203 345 L204 346 L208 346 L209 347 L210 347 L216 353 L216 354 L217 355 L217 356 L218 357 L218 358 L219 359 L219 361 L220 362 L220 364 L221 365 L221 366 L224 366 L225 367 L226 367 L227 366 L228 366 L229 365 L229 364 L230 363 L230 361 L231 360 L231 358 L232 357 L232 353 L233 352 L233 348 L234 347 L234 343 L235 342 L235 323 L234 322 L234 321 L233 320 L233 319 L231 317 L230 317 L229 316 L228 316 L227 315 L225 315 L224 314 L223 314 L222 315 L221 314 Z M192 408 L193 407 L195 409 L195 415 L194 416 L193 416 L192 415 Z M225 364 L226 363 L227 364 L226 365 Z M699 294 L698 295 L697 295 L694 298 L694 331 L690 335 L669 335 L668 336 L668 337 L667 338 L668 339 L668 340 L667 341 L667 342 L668 343 L668 372 L670 374 L683 374 L684 373 L685 373 L686 374 L687 374 L688 373 L689 374 L691 374 L693 376 L693 377 L694 378 L694 475 L695 476 L695 480 L696 481 L696 484 L697 485 L697 486 L698 487 L698 488 L699 489 L699 490 L700 491 L700 492 L703 495 L703 496 L711 504 L712 504 L714 506 L715 506 L716 507 L717 507 L718 508 L719 508 L720 509 L721 509 L722 510 L723 510 L724 511 L726 511 L727 512 L730 512 L731 513 L734 513 L735 514 L741 514 L742 515 L752 515 L753 516 L755 516 L756 515 L757 516 L763 516 L764 515 L765 515 L766 516 L768 516 L769 515 L770 516 L772 516 L773 515 L775 515 L776 516 L777 515 L783 515 L785 513 L785 473 L782 470 L771 470 L770 471 L769 470 L760 470 L759 469 L758 470 L757 469 L756 469 L755 468 L754 468 L753 467 L752 467 L748 463 L748 462 L746 460 L746 459 L745 458 L745 457 L744 456 L744 451 L743 450 L743 377 L746 374 L782 374 L784 372 L784 371 L785 370 L785 337 L784 336 L784 335 L783 334 L781 334 L780 333 L778 333 L777 334 L776 333 L774 333 L773 334 L772 333 L747 333 L744 330 L744 296 L742 294 Z M473 268 L472 269 L466 269 L465 270 L463 270 L462 271 L461 271 L460 272 L459 272 L457 274 L456 274 L452 278 L452 279 L450 281 L450 282 L449 283 L449 284 L448 285 L448 287 L447 288 L447 292 L446 293 L447 294 L446 295 L447 296 L447 302 L448 303 L448 306 L449 307 L449 308 L450 309 L450 310 L451 311 L451 312 L457 318 L458 318 L460 320 L461 320 L462 321 L464 321 L465 322 L469 322 L470 323 L471 322 L473 322 L474 323 L475 322 L479 322 L480 321 L482 321 L483 320 L484 320 L485 319 L486 319 L487 318 L488 318 L495 311 L495 310 L496 309 L496 308 L497 307 L497 305 L498 304 L498 302 L499 301 L499 289 L498 288 L498 286 L497 285 L497 284 L496 283 L496 282 L495 281 L495 280 L494 279 L494 278 L491 275 L490 275 L487 272 L486 272 L485 271 L484 271 L483 270 L480 270 L479 269 L474 269 Z M481 87 L479 89 L479 95 L480 96 L480 97 L481 98 L481 100 L483 102 L483 103 L484 104 L484 105 L485 106 L485 107 L486 108 L486 109 L487 110 L487 111 L488 112 L488 113 L489 114 L489 115 L490 116 L490 117 L491 118 L491 119 L492 120 L492 121 L493 122 L493 123 L492 124 L493 125 L492 126 L492 139 L493 140 L493 142 L494 143 L494 145 L495 146 L495 148 L496 149 L496 150 L497 151 L497 152 L498 153 L498 155 L499 156 L499 157 L500 158 L500 165 L501 166 L501 170 L502 171 L502 174 L503 175 L503 178 L504 179 L504 181 L505 182 L505 183 L506 183 L507 184 L508 184 L510 186 L512 186 L513 187 L515 187 L516 188 L517 187 L518 188 L519 188 L520 189 L521 189 L522 190 L523 190 L524 191 L525 191 L527 193 L528 193 L529 194 L528 195 L513 195 L512 196 L510 196 L509 197 L509 198 L510 199 L510 202 L511 203 L511 204 L512 205 L512 206 L513 207 L513 208 L514 209 L514 210 L515 211 L515 212 L516 213 L516 214 L517 215 L517 216 L518 217 L518 219 L519 220 L519 223 L520 224 L520 230 L521 231 L521 235 L522 236 L522 239 L523 240 L523 242 L524 243 L524 245 L525 246 L525 247 L526 248 L526 249 L527 250 L527 257 L528 258 L528 261 L529 262 L529 264 L533 268 L538 268 L539 269 L540 268 L541 268 L542 269 L543 268 L546 268 L547 269 L548 269 L549 268 L550 268 L551 269 L552 269 L553 268 L554 268 L555 269 L556 268 L557 268 L558 269 L559 269 L560 268 L561 268 L562 269 L563 268 L565 268 L566 269 L567 268 L570 268 L571 269 L572 269 L573 268 L574 268 L575 269 L576 269 L577 268 L581 268 L582 269 L583 268 L586 268 L587 269 L589 267 L589 255 L590 254 L590 251 L591 250 L591 248 L592 247 L592 245 L593 244 L593 241 L594 240 L594 238 L595 237 L595 235 L596 234 L596 232 L597 231 L597 229 L598 228 L598 226 L599 225 L599 222 L600 221 L600 217 L601 216 L601 213 L602 212 L602 207 L603 206 L603 203 L602 203 L599 200 L599 199 L600 198 L600 197 L601 196 L601 193 L600 192 L600 191 L603 188 L604 188 L605 187 L606 187 L608 185 L609 185 L611 183 L611 182 L612 181 L612 179 L613 178 L613 176 L614 175 L614 174 L615 173 L615 171 L616 170 L616 168 L617 167 L617 165 L618 164 L618 163 L622 159 L623 159 L625 161 L625 163 L626 164 L626 166 L627 167 L627 169 L628 170 L628 173 L629 174 L629 176 L630 177 L630 180 L631 181 L631 183 L632 184 L632 185 L633 186 L633 187 L635 189 L647 189 L648 190 L652 190 L653 191 L656 191 L657 192 L659 192 L660 193 L662 193 L663 194 L663 195 L662 196 L661 196 L660 195 L644 195 L643 194 L641 194 L640 195 L635 195 L634 196 L634 199 L635 200 L635 202 L636 203 L636 205 L639 208 L641 208 L645 212 L645 215 L644 216 L644 217 L642 219 L642 220 L640 222 L640 228 L641 229 L641 230 L642 231 L642 233 L643 234 L643 236 L644 237 L644 238 L645 239 L645 241 L646 242 L646 243 L647 244 L647 246 L648 247 L648 250 L649 251 L649 253 L650 254 L650 257 L651 258 L651 261 L652 262 L652 264 L653 265 L653 266 L655 268 L663 268 L664 269 L665 268 L666 268 L667 269 L668 268 L670 268 L671 269 L672 268 L673 268 L674 269 L675 268 L677 268 L678 269 L679 269 L680 268 L682 268 L683 269 L684 268 L686 268 L687 269 L688 268 L695 268 L696 269 L697 268 L703 268 L704 267 L704 265 L705 264 L705 248 L706 247 L706 238 L703 235 L702 235 L701 234 L699 234 L697 232 L696 232 L695 231 L695 230 L698 227 L699 227 L701 225 L702 225 L703 224 L704 224 L705 223 L707 223 L708 222 L710 222 L711 221 L713 221 L714 220 L716 220 L716 218 L715 217 L715 216 L714 215 L714 214 L711 211 L710 211 L708 209 L709 208 L712 208 L713 207 L715 207 L716 206 L718 206 L719 205 L720 205 L721 204 L722 204 L722 203 L723 202 L723 200 L724 199 L724 198 L725 197 L725 195 L726 194 L726 192 L727 191 L727 189 L728 188 L728 185 L730 183 L730 182 L732 180 L732 179 L733 178 L733 175 L734 174 L734 163 L736 161 L736 160 L737 159 L737 158 L738 157 L738 155 L739 154 L739 151 L740 150 L740 148 L741 147 L741 144 L742 143 L742 141 L743 140 L743 136 L744 135 L744 132 L745 131 L745 128 L746 127 L746 125 L747 124 L747 122 L748 121 L748 118 L749 117 L749 115 L750 114 L750 111 L751 110 L751 108 L752 107 L752 105 L753 104 L753 102 L754 101 L754 100 L755 99 L755 97 L756 96 L756 94 L757 93 L757 89 L756 88 L712 88 L712 89 L711 90 L711 95 L710 96 L710 98 L709 99 L709 101 L708 102 L708 104 L707 105 L707 108 L706 109 L706 112 L705 113 L705 115 L704 116 L704 119 L703 120 L703 122 L702 123 L702 125 L701 126 L701 128 L700 129 L700 131 L699 132 L699 134 L698 135 L698 136 L697 137 L697 139 L696 140 L696 142 L695 143 L695 144 L694 145 L694 146 L693 147 L693 148 L692 149 L692 151 L690 153 L690 155 L689 156 L689 157 L688 158 L688 159 L687 160 L687 162 L686 163 L686 168 L685 169 L685 172 L684 173 L684 175 L683 176 L683 177 L682 178 L682 179 L681 180 L681 181 L680 182 L680 184 L679 185 L679 186 L676 189 L675 189 L673 187 L673 185 L672 184 L672 180 L671 179 L671 177 L670 176 L670 174 L669 173 L669 172 L668 171 L668 170 L667 169 L667 167 L666 166 L666 164 L665 163 L665 161 L664 160 L664 159 L663 158 L663 156 L662 155 L662 154 L661 153 L661 152 L660 151 L660 150 L659 149 L659 147 L658 146 L658 142 L657 141 L657 137 L656 136 L656 133 L655 132 L655 129 L654 128 L654 125 L653 124 L653 121 L652 120 L652 117 L651 116 L651 113 L650 112 L650 110 L649 109 L649 106 L648 105 L648 103 L647 102 L647 99 L646 98 L646 94 L645 93 L645 91 L644 90 L644 89 L643 88 L597 88 L597 91 L596 92 L596 95 L595 96 L595 98 L594 99 L594 103 L593 104 L593 107 L592 108 L592 110 L591 111 L591 113 L590 114 L590 116 L589 117 L589 118 L588 119 L588 121 L587 122 L587 125 L586 126 L586 128 L585 129 L585 131 L584 132 L584 135 L583 136 L583 137 L582 138 L582 140 L581 141 L581 144 L580 145 L580 153 L579 154 L579 157 L578 158 L578 159 L577 160 L577 161 L576 162 L576 163 L574 165 L574 166 L572 168 L572 170 L571 171 L571 172 L570 173 L570 174 L569 175 L569 177 L568 178 L568 180 L567 181 L567 183 L566 184 L566 185 L565 186 L565 188 L562 191 L560 191 L555 186 L555 185 L554 184 L554 181 L553 180 L553 175 L552 174 L552 171 L551 170 L551 169 L550 168 L550 166 L549 165 L549 164 L548 163 L548 161 L547 160 L547 157 L546 156 L546 153 L545 152 L545 146 L544 145 L544 142 L543 141 L543 139 L542 138 L542 136 L541 135 L541 133 L540 132 L540 130 L539 129 L539 126 L538 125 L538 122 L537 121 L537 118 L536 117 L536 115 L535 114 L535 111 L534 110 L534 108 L533 107 L533 105 L532 104 L532 100 L531 99 L531 96 L530 95 L530 92 L529 91 L529 89 L528 88 L527 88 L526 87 L524 87 L523 88 L522 87 L521 87 L520 88 L518 88 L517 87 L516 87 L515 88 L513 88 L512 87 L511 88 L502 88 L501 87 L500 88 L499 88 L498 87 L497 88 L496 88 L495 87 L494 88 L493 88 L492 87 L491 87 L490 88 L489 88 L488 87 L487 87 L486 88 L485 87 L484 88 L483 87 L482 88 Z M366 83 L365 84 L359 84 L358 85 L353 85 L352 86 L349 86 L348 87 L346 87 L345 88 L343 88 L342 89 L341 89 L340 90 L339 90 L338 91 L336 91 L334 93 L333 93 L332 94 L331 94 L330 95 L329 95 L326 98 L325 98 L323 100 L322 100 L316 106 L315 106 L315 107 L308 114 L308 115 L305 118 L305 119 L302 122 L302 123 L299 126 L299 127 L298 128 L298 129 L297 130 L297 131 L295 133 L295 135 L294 136 L294 137 L293 138 L293 140 L292 141 L292 142 L291 143 L291 145 L290 146 L290 149 L289 150 L289 153 L288 154 L288 157 L287 158 L287 164 L286 165 L286 168 L287 169 L286 170 L286 171 L287 172 L287 173 L286 174 L286 175 L287 176 L287 187 L288 188 L288 195 L289 196 L289 201 L290 202 L290 205 L291 206 L291 208 L293 210 L296 210 L297 211 L307 211 L308 210 L309 210 L310 211 L311 210 L339 210 L340 211 L341 210 L343 210 L344 211 L345 211 L346 210 L346 209 L344 207 L344 206 L343 205 L343 204 L342 203 L342 201 L341 200 L341 199 L340 198 L340 196 L339 195 L339 192 L338 191 L338 188 L337 187 L337 182 L336 181 L336 180 L337 179 L337 178 L336 177 L336 169 L337 168 L337 163 L338 162 L338 160 L339 159 L339 157 L340 156 L340 155 L341 154 L341 152 L342 151 L342 150 L344 148 L344 147 L345 146 L345 145 L347 143 L347 142 L355 134 L356 134 L359 131 L360 131 L362 129 L364 129 L365 128 L367 128 L368 127 L371 127 L372 126 L380 126 L381 125 L382 126 L391 126 L392 127 L395 127 L396 128 L399 128 L400 129 L401 129 L402 130 L404 130 L406 132 L407 132 L411 136 L412 136 L413 137 L417 137 L418 138 L424 138 L425 139 L426 139 L427 140 L431 140 L432 141 L434 141 L435 142 L437 142 L438 143 L440 143 L441 144 L440 145 L423 145 L423 148 L424 149 L424 151 L425 152 L425 153 L426 154 L426 156 L427 157 L427 158 L428 159 L428 162 L429 163 L429 167 L430 168 L430 184 L429 185 L429 189 L428 190 L428 193 L427 194 L427 196 L426 197 L426 199 L425 200 L425 201 L424 202 L424 203 L423 204 L423 205 L421 207 L421 208 L414 215 L413 215 L411 217 L410 217 L409 218 L408 218 L407 219 L406 219 L405 220 L404 220 L403 221 L402 221 L401 222 L399 222 L398 223 L396 223 L395 224 L393 224 L392 225 L376 225 L375 224 L372 224 L371 223 L369 223 L368 222 L367 222 L366 221 L364 221 L363 220 L361 220 L360 219 L351 219 L350 220 L347 220 L346 221 L345 220 L342 220 L341 219 L337 219 L336 218 L319 218 L318 219 L314 219 L313 220 L312 220 L311 221 L310 221 L307 224 L307 227 L320 240 L320 241 L321 242 L321 244 L323 246 L324 246 L326 248 L327 248 L328 249 L329 249 L331 251 L332 251 L334 253 L335 253 L337 255 L338 255 L339 256 L340 256 L341 257 L342 257 L343 258 L344 258 L345 259 L346 259 L347 260 L349 260 L350 261 L351 261 L352 262 L354 262 L355 263 L357 263 L358 264 L361 264 L362 265 L365 265 L366 266 L372 266 L373 267 L396 267 L397 266 L403 266 L404 265 L407 265 L408 264 L411 264 L412 263 L415 263 L416 262 L418 262 L419 261 L420 261 L421 260 L423 260 L424 259 L425 259 L426 258 L427 258 L428 257 L429 257 L430 256 L432 256 L434 254 L435 254 L436 253 L437 253 L438 252 L439 252 L441 250 L442 250 L443 249 L444 249 L447 246 L448 246 L453 241 L454 241 L458 237 L458 236 L462 232 L462 231 L465 228 L465 227 L467 225 L467 224 L469 222 L469 221 L470 220 L470 219 L471 218 L471 217 L472 216 L472 215 L473 214 L473 213 L474 212 L474 210 L475 209 L475 207 L476 206 L476 204 L477 203 L477 201 L478 200 L478 198 L479 197 L479 194 L480 193 L480 187 L481 186 L481 175 L482 174 L482 173 L481 172 L481 171 L482 170 L482 169 L481 168 L481 153 L480 152 L480 147 L479 147 L478 146 L476 146 L475 145 L474 145 L469 140 L469 139 L468 138 L468 137 L467 136 L467 135 L466 134 L466 133 L465 132 L465 130 L464 129 L464 128 L463 127 L463 126 L461 124 L461 123 L458 120 L458 119 L454 115 L454 114 L445 105 L444 105 L439 100 L438 100 L435 97 L434 97 L432 95 L431 95 L430 94 L429 94 L428 93 L427 93 L426 92 L425 92 L424 91 L423 91 L422 90 L421 90 L420 89 L418 89 L417 88 L415 88 L414 87 L412 87 L411 86 L409 86 L408 85 L404 85 L403 84 L395 84 L394 83 L393 84 L392 83 Z M126 13 L125 14 L119 14 L118 15 L115 15 L114 16 L113 16 L112 17 L110 17 L109 18 L108 18 L102 24 L102 25 L100 27 L100 29 L99 30 L99 32 L98 33 L98 36 L97 37 L97 41 L96 42 L96 84 L95 85 L95 86 L94 87 L93 87 L92 88 L68 88 L67 87 L66 88 L63 88 L62 87 L61 88 L61 89 L60 90 L60 91 L59 92 L59 128 L61 130 L73 130 L74 131 L75 130 L87 130 L88 131 L89 130 L91 130 L92 131 L93 130 L95 130 L96 131 L97 131 L99 133 L99 134 L100 135 L100 136 L99 137 L99 138 L100 139 L100 140 L99 141 L99 143 L100 144 L99 145 L99 157 L100 158 L100 159 L101 159 L102 160 L103 160 L104 161 L105 161 L106 162 L108 162 L110 164 L108 166 L106 166 L105 167 L102 167 L100 169 L100 268 L101 269 L102 269 L103 270 L115 270 L116 271 L142 271 L143 270 L146 270 L148 268 L148 170 L147 170 L146 169 L145 169 L143 167 L142 167 L141 166 L143 164 L144 164 L146 162 L147 162 L147 161 L148 160 L148 154 L147 153 L148 152 L148 149 L147 148 L148 147 L148 145 L147 144 L147 139 L148 138 L147 137 L147 134 L150 131 L182 131 L184 129 L184 90 L182 88 L149 88 L146 85 L146 65 L149 62 L157 62 L158 63 L161 63 L162 64 L163 64 L164 65 L166 65 L167 66 L169 66 L170 67 L171 67 L172 68 L174 68 L175 69 L177 69 L178 70 L181 70 L182 71 L186 71 L187 72 L188 72 L192 68 L192 63 L193 62 L193 60 L194 59 L194 57 L195 56 L195 55 L196 54 L196 48 L197 47 L197 34 L198 33 L198 25 L196 23 L176 23 L175 22 L172 22 L171 21 L169 21 L168 20 L166 20 L165 19 L163 19 L162 18 L161 18 L160 17 L159 17 L158 16 L155 16 L154 15 L152 15 L151 14 L146 14 L145 13 Z M218 10 L216 12 L216 13 L214 15 L214 61 L215 62 L216 62 L218 64 L221 64 L222 65 L225 65 L226 66 L227 66 L229 68 L228 69 L221 69 L220 70 L215 70 L213 72 L213 73 L212 74 L212 117 L211 118 L212 119 L212 121 L211 122 L212 123 L212 125 L211 126 L212 127 L212 129 L211 130 L212 131 L212 133 L211 134 L212 135 L212 137 L211 138 L212 139 L212 141 L211 142 L212 143 L212 145 L211 146 L212 147 L212 149 L211 150 L212 151 L212 153 L211 154 L211 155 L212 156 L212 161 L211 162 L212 163 L211 164 L212 165 L212 167 L211 168 L213 170 L219 170 L220 171 L220 172 L219 173 L218 173 L217 174 L213 174 L212 175 L212 176 L211 177 L212 178 L211 179 L211 266 L215 270 L219 270 L220 269 L221 270 L259 270 L260 269 L261 269 L262 268 L262 263 L263 262 L263 261 L262 260 L262 194 L263 193 L262 192 L262 191 L263 190 L263 189 L262 188 L262 184 L263 183 L262 182 L262 179 L263 178 L262 177 L262 175 L263 174 L262 173 L262 171 L263 170 L262 169 L262 167 L263 166 L262 165 L262 163 L263 162 L262 161 L262 160 L263 159 L263 158 L262 157 L263 156 L263 155 L262 154 L263 153 L263 151 L262 150 L263 149 L263 146 L262 145 L262 144 L263 143 L263 142 L262 141 L263 140 L263 139 L262 138 L263 137 L262 136 L262 135 L263 134 L263 133 L262 132 L263 131 L263 130 L262 129 L262 128 L263 127 L263 126 L262 125 L262 123 L263 122 L263 121 L262 120 L263 119 L263 117 L262 116 L263 115 L263 113 L262 112 L263 111 L263 107 L262 106 L263 105 L263 104 L262 103 L263 102 L263 100 L262 99 L263 98 L262 97 L262 96 L263 95 L263 94 L262 93 L263 92 L263 89 L262 88 L263 87 L263 81 L262 80 L263 79 L263 77 L262 76 L263 75 L263 70 L264 69 L265 69 L266 68 L269 68 L270 67 L273 67 L274 66 L276 66 L275 66 L274 65 L271 65 L270 64 L269 64 L268 63 L267 63 L263 59 L263 50 L264 49 L264 44 L265 43 L265 36 L266 35 L266 33 L265 32 L266 31 L266 13 L265 12 L264 12 L263 11 L261 11 L260 10 L259 10 L258 11 L257 10 Z" fill="#BFC1BC" fill-rule="evenodd"/>
</svg>